<svg width="2869" height="900" viewBox="0 0 2869 900" fill="none" xmlns="http://www.w3.org/2000/svg">
<path d="M201.042 752.835C202.467 752.835 203.893 752.835 203.893 752.835C205.319 752.835 205.319 754.261 205.319 755.687C205.319 757.113 205.319 758.539 205.319 759.965C205.319 762.816 205.319 764.242 203.893 765.668C203.893 767.094 203.893 768.52 203.893 768.52C203.893 769.945 202.467 771.371 202.467 772.797C201.041 774.223 201.041 775.649 199.616 775.649C198.19 777.075 196.764 777.075 196.764 778.5C195.338 778.5 195.338 779.926 195.338 779.926C193.912 779.926 193.912 779.926 192.486 779.926C191.061 779.926 191.061 779.926 189.635 779.926C188.209 779.926 188.209 778.5 188.209 777.075C186.783 775.649 186.783 774.223 186.783 772.797C186.783 771.371 186.783 768.52 189.635 765.668C191.061 762.816 192.487 761.39 195.338 759.965C196.764 758.539 196.764 757.113 198.19 755.687C198.19 755.687 199.616 754.261 201.042 754.261C198.19 752.836 199.616 752.835 201.042 752.835Z" fill="white"/>
<path d="M503.318 710.061C504.744 710.061 506.17 710.061 506.17 710.061C506.17 710.061 507.596 711.486 507.596 712.912C507.596 714.338 507.596 715.764 507.596 717.19C507.596 720.041 507.596 721.467 506.17 722.893C506.17 724.319 506.17 725.745 506.17 725.745C506.17 727.171 504.744 728.596 504.744 730.022C503.318 731.448 503.318 732.874 501.893 732.874C500.467 734.3 499.041 734.3 499.041 735.726C497.615 735.726 497.615 737.151 497.615 737.151C496.189 737.151 496.189 737.151 494.763 737.151C493.338 737.151 493.338 737.151 491.912 737.151C490.486 737.151 490.486 735.726 489.06 734.3C489.06 732.874 487.634 731.448 487.634 730.022C487.634 728.596 487.634 725.745 490.486 722.893C491.912 720.041 493.338 718.616 496.189 717.19C497.615 715.764 497.615 714.338 499.041 712.912C499.041 712.912 500.467 711.486 501.893 711.486C500.467 711.486 501.893 710.061 503.318 710.061Z" fill="white"/>
<path d="M608.829 761.391C605.978 759.965 600.274 767.094 597.423 769.946C595.997 771.371 595.997 771.371 594.571 772.797C594.571 774.223 593.145 774.223 593.145 775.649C591.72 777.075 591.719 777.075 590.294 777.075L588.868 778.501C587.442 778.501 584.59 777.075 581.739 774.223C578.887 771.371 577.461 768.52 576.035 767.094C576.035 764.242 577.461 759.965 581.739 752.836C586.016 745.706 587.442 738.577 587.442 734.3C587.442 732.874 586.016 731.448 586.016 730.022C586.016 728.596 584.59 728.597 583.164 728.597C583.164 728.597 581.739 730.022 580.313 731.448C578.887 732.874 577.461 735.726 577.461 738.577C574.61 744.281 573.184 749.984 571.758 752.836C570.332 755.687 568.906 758.539 568.906 758.539C564.629 759.965 563.203 761.391 561.777 762.816C560.351 764.242 560.351 767.094 560.351 771.371V774.223C558.925 777.075 558.925 779.926 557.5 781.352C556.074 784.204 556.074 785.63 554.648 787.056C554.648 788.481 554.648 788.481 553.222 788.481C553.222 788.481 551.796 788.481 551.796 789.907C551.796 789.907 551.796 789.907 551.796 788.481C551.796 788.481 551.796 787.056 551.796 784.204C551.796 782.778 551.796 779.926 553.222 777.075C553.222 774.223 554.648 769.946 554.648 767.094C554.648 764.242 556.074 759.965 556.074 757.113C556.074 752.836 557.5 748.558 558.925 745.706C560.351 742.855 560.351 740.003 561.777 737.151C566.055 725.745 568.906 717.19 570.332 710.061C571.758 702.932 571.758 697.228 571.758 692.951C571.758 688.673 570.332 687.247 568.906 684.396C567.48 682.97 566.055 681.544 563.203 682.97H561.777L560.351 684.396C558.925 687.247 558.925 688.673 557.5 691.525C556.074 694.377 556.074 697.228 556.074 700.08C556.074 701.506 556.074 701.506 556.074 702.932C556.074 704.357 556.074 704.357 554.648 704.357C554.648 705.783 553.222 707.209 553.222 710.061C551.796 712.912 551.796 717.19 550.37 721.467C548.945 727.171 548.945 730.022 547.519 734.3C547.519 737.152 546.093 740.003 546.093 741.429C544.667 742.855 544.667 745.706 543.241 748.558C541.815 751.41 540.39 754.261 540.39 758.539C538.964 761.391 538.964 764.242 537.538 765.668C536.112 768.52 534.686 769.946 533.26 771.371C531.835 772.797 531.835 772.797 531.835 774.223C531.835 775.649 530.409 775.649 530.409 775.649C530.409 777.075 530.409 777.075 530.409 777.075C530.409 777.075 527.557 779.926 527.557 781.352C526.131 782.778 526.131 782.778 524.706 784.204C523.28 785.63 523.28 785.63 521.854 787.056C520.428 787.056 519.002 788.481 519.002 788.481C517.576 788.481 517.576 788.481 516.151 788.481C516.151 788.481 514.725 788.481 514.725 787.056C514.725 787.056 513.299 785.63 513.299 782.778C511.873 779.926 511.873 778.501 510.447 777.075C510.447 775.649 509.021 772.797 509.021 771.371C509.021 769.946 507.596 767.094 507.596 765.668C506.17 764.242 506.17 762.816 504.744 761.391C503.318 759.965 501.892 759.965 499.041 759.965C497.615 759.965 497.615 759.965 496.189 761.391C494.763 761.391 494.763 762.816 494.763 764.242C493.337 767.094 490.486 769.946 487.634 774.223C484.782 778.501 481.931 781.352 480.505 784.204V785.63C480.505 785.63 479.079 787.056 479.079 788.481H477.653C476.227 788.481 476.227 788.481 474.801 787.056C473.376 785.63 473.376 785.63 471.95 782.778C470.524 779.926 469.098 777.075 467.672 772.797C466.246 771.371 464.821 769.946 463.395 768.52C461.969 767.094 460.543 767.094 457.692 768.52C456.266 768.52 456.266 768.52 454.84 769.946C453.414 769.946 451.988 771.371 450.562 772.797C449.137 774.223 447.711 774.223 447.711 775.649C446.285 777.075 446.285 777.075 444.859 778.501C444.859 779.926 443.433 779.926 443.433 779.926C443.433 779.926 443.433 781.352 442.007 781.352C440.582 782.778 440.582 782.778 439.156 784.204C439.156 785.63 437.73 787.056 437.73 787.056C436.304 788.481 434.878 789.907 434.878 791.333C433.452 792.759 433.452 794.185 433.452 794.185C433.452 794.185 433.452 795.61 432.027 795.61C432.027 795.61 432.027 795.611 432.027 797.036L430.601 795.61V794.185C430.601 794.185 430.601 792.759 430.601 791.333C430.601 789.907 430.601 788.481 432.027 787.056C433.452 779.926 434.878 775.649 434.878 771.371C434.878 767.094 434.878 764.242 434.878 762.816C434.878 759.965 433.452 758.539 432.027 757.113C430.601 755.687 429.175 755.687 426.323 755.687C423.472 755.687 422.046 757.113 420.62 758.539C419.194 759.965 417.768 761.391 416.342 764.242C414.917 767.094 413.491 768.52 412.065 771.371C410.639 772.797 409.213 774.223 409.213 775.649C407.787 778.501 406.362 781.352 404.936 782.778C403.51 784.204 402.084 787.056 402.084 788.481C400.658 789.907 400.658 791.333 399.232 792.759C397.807 794.185 397.807 794.185 397.807 795.61C397.807 797.036 396.381 797.036 396.381 797.036C396.381 797.036 396.381 798.462 394.955 798.462C393.529 798.462 393.529 799.888 393.529 799.888C393.529 801.314 392.103 801.314 392.103 802.74C390.677 804.165 390.677 804.166 389.252 805.591L387.826 807.017C386.4 807.017 383.548 805.591 380.697 802.74C377.845 799.888 376.419 797.036 374.993 795.61C374.993 792.759 376.419 788.481 380.697 781.352C384.974 774.223 386.4 767.094 386.4 762.816C386.4 761.391 384.974 759.965 384.974 758.539C383.548 757.113 383.548 757.113 382.122 757.113C382.122 757.113 380.697 758.539 379.271 759.965C377.845 761.391 376.419 764.242 376.419 767.094C373.568 774.223 372.142 778.501 370.716 781.352C369.29 784.204 367.864 787.056 367.864 787.056C363.587 788.481 362.161 789.907 360.735 791.333C359.309 792.759 359.309 795.611 359.309 799.888V802.74C357.883 805.591 357.883 808.443 356.458 809.869C355.032 812.72 355.032 814.146 353.606 815.572C353.606 815.572 353.606 816.998 352.18 816.998C352.18 816.998 350.754 816.998 350.754 818.424C350.754 818.424 350.754 818.424 350.754 816.998C350.754 816.998 350.754 815.572 350.754 812.721C350.754 811.295 350.754 808.443 352.18 805.591C352.18 802.74 353.606 798.462 353.606 795.61C353.606 792.759 355.032 788.481 355.032 785.63C355.032 781.352 356.458 777.075 357.883 774.223C359.309 771.371 359.309 768.52 360.735 765.668C365.013 754.261 367.864 745.706 369.29 738.577C370.716 731.448 370.716 725.745 370.716 721.467C370.716 718.616 369.29 715.764 367.864 714.338C366.438 712.912 365.013 711.487 362.161 712.912H360.735C360.735 712.912 360.735 714.338 359.309 714.338C357.883 717.19 357.883 718.616 356.458 721.467C355.032 724.319 355.032 727.171 355.032 730.022C355.032 731.448 355.032 731.448 355.032 732.874C355.032 732.874 355.032 734.3 353.606 734.3C353.606 735.726 352.18 737.152 352.18 740.003C350.754 742.855 350.754 747.132 349.328 751.41C347.903 757.113 347.903 759.965 346.477 764.242C346.477 767.094 345.051 769.946 345.051 771.371C343.625 772.797 343.625 775.649 342.199 778.501C340.773 781.352 339.348 784.204 339.348 788.481C337.922 791.333 337.922 794.185 336.496 795.61C335.07 798.462 333.644 799.888 332.218 801.314C330.793 802.74 330.793 802.74 330.793 804.166C330.793 805.591 329.367 805.591 329.367 805.591C329.367 807.017 329.367 807.017 329.367 807.017C329.367 807.017 329.367 807.017 329.367 808.443L327.941 809.869L326.515 811.295C325.089 812.721 323.663 812.72 322.238 814.146C320.812 815.572 317.96 815.572 316.534 815.572C315.108 815.572 313.683 815.572 312.257 815.572C310.831 815.572 310.831 815.572 309.405 814.146C307.979 814.146 307.979 812.721 306.553 812.721C306.553 811.295 305.128 811.295 305.128 809.869C305.128 808.443 305.128 808.443 305.128 807.017C305.128 807.017 305.128 805.591 306.553 805.591C310.831 799.888 313.683 795.611 316.534 791.333C319.386 787.056 320.812 784.204 320.812 779.926V777.075C320.812 775.649 320.812 774.223 320.812 774.223C320.812 772.797 320.812 772.797 320.812 774.223C320.812 772.797 319.386 771.371 319.386 769.946C319.386 768.52 317.96 767.094 317.96 767.094C317.96 765.668 316.534 765.668 316.534 765.668C316.534 765.668 315.108 764.242 313.683 764.242C312.257 764.242 310.831 764.242 309.405 764.242C307.979 764.242 307.979 764.242 306.553 765.668C305.128 765.668 305.128 767.094 303.702 767.094C302.276 768.52 302.276 768.52 300.85 768.52L299.424 769.946C297.999 771.371 296.573 774.223 296.573 775.649C295.147 777.075 293.721 779.926 293.721 781.352C292.295 784.204 292.295 785.63 290.869 788.481C290.869 789.907 289.444 792.759 289.444 794.185C289.444 795.611 289.444 797.036 288.018 798.462C288.018 799.888 288.018 801.314 288.018 801.314C288.018 802.74 288.018 804.166 288.018 804.166V808.443C286.592 809.869 285.166 811.295 283.74 812.721C282.314 814.146 282.314 815.572 280.889 816.998C278.037 821.275 275.185 824.127 272.334 825.553C270.908 826.979 269.482 828.405 269.482 828.405H268.056V826.979C268.056 825.553 268.056 824.127 268.056 821.275C268.056 818.424 268.056 814.146 268.056 808.443C269.482 801.314 269.482 795.611 269.482 791.333C269.482 787.056 270.908 782.778 270.908 779.926C270.908 778.501 270.908 777.075 270.908 777.075C270.908 775.649 270.908 775.649 270.908 774.223L276.611 772.797C276.611 772.797 278.037 771.371 278.037 769.946C278.037 768.52 278.037 765.668 276.611 761.391C276.611 759.965 276.611 759.965 276.611 758.539C276.611 758.539 276.611 757.113 275.185 757.113C275.185 757.113 273.759 757.113 273.759 755.687C273.759 754.261 273.759 752.836 275.185 749.984C275.185 747.132 275.185 745.706 275.185 744.281C275.185 742.855 273.759 741.429 273.759 740.003C272.334 738.577 272.334 738.577 270.908 738.577C268.056 738.577 266.63 741.429 263.779 748.558C262.353 754.261 260.927 757.113 258.075 758.539H255.224C253.798 758.539 253.798 758.539 252.372 759.965C250.946 759.965 250.946 759.965 249.52 761.391C249.52 761.391 248.094 761.391 246.669 761.391C245.243 761.391 243.817 761.391 242.391 761.391C240.965 761.391 240.965 761.391 239.539 762.816C238.114 762.816 236.688 762.816 235.262 762.816C233.836 762.816 232.41 762.816 230.984 762.816C229.559 762.816 228.133 764.242 228.133 767.094C228.133 768.52 228.133 772.797 228.133 775.649C228.133 775.649 228.133 777.075 229.559 777.075C229.559 777.075 230.984 777.075 230.984 778.501H232.41H233.836C233.836 778.501 235.262 778.501 236.688 778.501C238.114 778.501 238.114 778.501 239.539 778.501L250.946 777.075H252.372C253.798 777.075 253.798 777.075 253.798 777.075C253.798 777.075 253.798 777.075 255.224 777.075C255.224 777.075 255.224 777.075 255.224 778.501C255.224 779.926 253.798 781.352 253.798 782.778C253.798 784.204 252.372 784.204 252.372 785.63C249.52 792.759 246.669 799.888 242.391 805.591C239.539 811.295 235.262 816.998 232.41 821.275C232.41 822.701 230.984 822.701 230.984 824.127C230.984 825.553 229.559 825.553 229.559 825.553V826.979C228.133 828.405 228.133 828.405 226.707 829.83C225.281 831.256 225.281 831.256 223.855 832.682C222.43 834.108 221.004 834.108 221.004 835.534C219.578 835.534 219.578 836.96 218.152 836.96C216.726 836.96 216.726 836.96 215.3 836.96C215.3 836.96 213.875 836.96 213.875 835.534C213.875 835.534 212.449 834.108 212.449 831.256C211.023 828.405 211.023 826.979 209.597 825.553C209.597 824.127 208.171 821.275 208.171 819.85C208.171 818.424 206.745 815.572 206.745 814.146C205.32 812.72 205.32 811.295 202.468 809.869C201.042 808.443 199.616 808.443 196.765 808.443C195.339 808.443 195.339 808.443 193.913 809.869C193.913 809.869 192.487 811.295 192.487 812.721C191.061 815.572 188.21 818.424 185.358 822.701C182.506 826.979 179.655 829.83 178.229 832.682V834.108C176.803 835.534 175.377 836.96 175.377 836.96C173.951 838.385 173.951 838.385 172.525 839.811C169.674 841.237 168.248 842.663 166.822 842.663C165.396 842.663 163.97 844.089 163.97 844.089C159.693 844.089 155.415 844.089 152.564 841.237C149.712 838.385 148.286 834.108 146.861 828.405C148.286 825.553 149.712 821.276 151.138 818.424C152.564 815.572 152.564 814.146 153.99 812.721C155.415 811.295 155.416 809.869 155.416 808.443C155.416 807.017 155.415 805.591 156.841 805.591C156.841 804.166 156.841 804.165 158.267 802.74C158.267 801.314 159.693 799.888 159.693 799.888C159.693 798.462 161.119 798.462 161.119 797.036C161.119 795.611 162.545 794.185 162.545 792.759C162.545 791.333 162.545 791.333 162.545 789.907C162.545 788.481 163.97 787.056 163.97 787.056C163.97 785.63 165.396 785.63 165.396 784.204C165.396 781.352 166.822 779.926 166.822 777.075C166.822 775.649 166.822 772.797 168.248 771.371C168.248 769.946 169.674 768.52 169.674 767.094C169.674 765.668 169.674 764.242 169.674 764.242V762.816V761.391C169.674 759.965 169.674 758.539 169.674 755.687C169.674 754.261 169.674 752.836 169.674 751.41C169.674 749.984 169.674 748.558 169.674 747.132C169.674 745.707 169.674 744.281 169.674 742.855C169.674 738.577 168.248 737.151 166.822 735.726C161.119 728.597 158.267 728.597 155.416 728.597C153.99 728.597 152.564 730.022 149.712 732.874C148.286 735.726 145.435 740.003 144.009 744.281C142.583 748.558 141.157 751.41 139.731 755.687C138.306 759.965 138.306 762.816 136.88 765.668C136.88 767.094 135.454 769.946 135.454 771.371C135.454 772.797 134.028 774.223 134.028 775.649C132.602 781.352 132.602 787.056 131.176 791.333C129.751 795.611 129.751 801.314 129.751 805.591L131.176 807.017C131.176 808.443 131.176 809.869 131.176 812.721C131.176 815.572 131.176 818.424 131.176 819.85V821.275V822.701L125.473 828.405C124.047 829.83 124.047 829.83 124.047 831.256C124.047 832.682 122.621 832.682 122.621 834.108L121.196 835.534H119.77H118.344L116.918 834.108C116.918 834.108 118.344 832.682 118.344 831.256C118.344 829.83 119.77 828.405 119.77 826.979C119.77 825.553 119.77 824.127 119.77 822.701C119.77 821.275 119.77 819.85 119.77 818.424C118.344 812.721 116.918 809.869 115.492 807.017C112.641 804.166 109.789 804.166 105.511 804.166C105.511 804.166 104.086 804.166 102.66 805.591C101.234 807.017 99.8081 807.017 96.9564 808.443V807.017C96.9564 805.591 98.3823 804.165 98.3823 802.74C98.3823 802.74 98.3823 801.314 96.9564 801.314C96.9564 801.314 95.5307 801.314 94.1048 801.314C92.679 801.314 91.2532 801.314 91.2532 802.74C89.8273 802.74 89.8273 804.166 88.4015 805.591C88.4015 807.017 86.9757 807.017 86.9757 808.443C86.9757 809.869 85.5498 809.869 84.124 811.295C84.124 812.721 82.6981 812.72 82.6981 814.146C81.2723 815.572 81.2724 815.572 79.8465 816.998C78.4207 818.424 78.4207 818.424 76.9949 819.85C76.9949 821.275 75.569 821.275 75.569 822.701C75.569 822.701 75.569 822.701 74.1432 824.127C74.1432 822.701 74.1432 822.701 75.569 821.275C76.9948 816.998 76.9948 811.295 75.569 804.166C75.569 799.888 74.1432 797.036 72.7174 794.185C71.2915 791.333 69.8657 788.481 68.4398 785.63C67.014 782.778 65.5882 781.352 62.7365 778.501C59.8849 775.649 58.4591 774.223 55.6074 771.371L54.1815 769.946C54.1815 769.946 52.7557 769.946 52.7557 768.52C51.3299 767.094 48.4782 765.668 47.0524 765.668C45.6266 764.242 45.6266 764.242 44.2008 764.242C41.3491 762.816 38.4974 761.391 38.4974 759.965C37.0716 758.539 34.2199 757.113 28.5166 755.687C27.0908 755.687 25.6649 754.261 22.8133 754.261C21.3875 754.261 19.9616 752.836 17.11 752.836H14.2583C14.2583 752.836 12.8325 751.41 11.4067 751.41C9.98083 751.41 7.12917 754.261 4.27751 758.539C1.42585 762.816 0 765.668 0 767.094C0 767.094 5.41786e-06 768.52 1.42584 768.52C2.85167 769.946 2.85168 771.371 5.70334 772.797C7.12917 774.223 8.55499 777.075 9.98082 777.075C11.4067 778.501 11.4067 779.926 12.8325 779.926L11.4067 808.443L12.8325 811.295C12.8325 812.721 12.8325 815.572 12.8325 816.998C12.8325 818.424 12.8325 819.85 12.8325 821.275C12.8325 824.127 12.8325 826.979 12.8325 829.83C12.8325 831.256 12.8325 832.682 12.8325 832.682C12.8325 836.96 12.8325 839.811 12.8325 842.663C12.8325 842.663 12.8325 844.089 14.2583 845.515C14.2583 846.94 14.2583 846.94 15.6841 848.366C15.6841 851.218 14.2583 852.644 12.8325 854.07C9.98083 855.495 8.55499 856.921 8.55499 858.347C8.55499 858.347 8.55499 859.773 9.98082 859.773C9.98082 859.773 11.4067 861.199 12.8325 861.199C14.2583 861.199 14.2583 861.199 15.6841 862.625C17.11 862.625 17.11 862.625 18.5358 864.05L19.9616 869.754C19.9616 872.605 19.9616 875.457 18.5358 876.883C18.5358 878.309 18.5358 881.16 18.5358 882.586C18.5358 886.864 19.9616 895.419 21.3875 896.844C22.8133 898.27 24.2391 899.696 25.665 899.696C27.0908 899.696 27.0908 898.27 28.5166 898.27C29.9424 896.844 29.9424 895.419 31.3683 893.993C32.7941 892.567 32.7941 891.141 32.7941 889.715C32.7941 888.29 34.2199 881.16 34.2199 879.734C32.7941 878.309 31.3683 876.883 31.3683 875.457C29.9424 874.031 29.9424 872.605 29.9424 872.605C29.9424 869.754 29.9424 866.902 29.9424 864.05C29.9424 859.773 29.9424 856.921 29.9424 856.921C29.9424 856.921 31.3683 856.921 32.7941 855.495C32.7941 855.495 34.2199 855.495 35.6458 854.07C37.0716 854.07 38.4974 852.644 39.9232 851.218C45.6266 848.366 49.9041 845.515 55.6074 842.663C58.4591 841.237 59.8849 839.811 61.3107 838.385C58.459 842.663 65.5882 845.515 72.7174 839.811C74.1432 838.385 74.1432 838.385 74.1432 838.385H75.569C75.569 838.385 75.569 838.385 75.569 839.811C75.569 839.811 75.569 841.237 75.569 844.089C75.569 846.94 75.569 848.366 75.569 849.792C75.569 852.644 78.4207 855.495 81.2723 858.347C84.124 861.199 88.4015 861.199 91.2532 861.199H92.679C94.1048 861.199 94.1048 861.199 94.1048 861.199C95.5307 861.199 95.5306 861.199 96.9564 859.773C98.3823 859.773 99.8081 858.347 101.234 856.921C104.086 855.495 105.511 854.07 108.363 851.218C109.789 849.792 111.215 846.94 112.641 845.515C112.641 846.94 114.066 846.94 115.492 848.366C116.918 848.366 118.344 849.792 119.77 848.366C121.196 848.366 122.621 848.366 122.621 846.94C124.047 846.94 125.473 845.515 126.899 844.089C128.325 842.663 128.325 842.663 129.751 841.237C131.176 839.811 131.176 839.811 132.602 838.385C134.028 836.96 135.454 835.534 135.454 834.108C136.88 832.682 136.88 831.256 138.306 831.256L139.731 832.682C139.731 832.682 139.731 834.108 141.157 834.108C142.583 839.811 145.435 842.663 146.861 845.515C149.712 848.366 152.564 848.366 155.416 848.366C156.841 848.366 158.267 848.366 159.693 848.366C161.119 848.366 162.545 848.366 163.97 848.366C165.396 848.366 168.248 846.94 169.674 846.94C171.1 845.515 172.525 844.089 175.377 842.663C176.803 841.237 178.229 839.811 179.655 838.385C181.08 836.96 182.506 835.534 183.932 834.108C185.358 831.256 188.21 829.83 189.635 826.979C191.061 825.553 192.487 824.127 193.913 824.127C193.913 824.127 195.339 824.127 195.339 825.553C195.339 825.553 196.765 826.979 198.19 828.405C199.616 829.83 199.616 829.83 199.616 829.83L201.042 831.256C203.894 836.96 206.745 839.811 208.171 841.237C209.597 842.663 213.875 842.663 219.578 841.237C221.004 841.237 222.43 841.237 223.855 839.811C225.281 838.385 226.707 836.96 229.559 835.534C230.985 834.108 233.836 831.256 235.262 829.83C236.688 828.405 238.114 826.979 238.114 825.553C238.114 824.127 239.539 824.127 239.539 822.701C239.539 822.701 239.539 821.275 240.965 821.275C243.817 818.424 246.669 814.146 249.52 811.295C250.946 809.869 252.372 807.017 253.798 805.591C255.224 804.166 255.224 802.74 256.649 801.314H258.075H259.501C259.501 802.74 258.075 804.166 258.075 805.591C258.075 808.443 258.075 809.869 258.075 812.721C258.075 814.146 258.075 815.572 258.075 816.998C258.075 818.424 258.075 818.424 258.075 819.85V821.275C258.075 822.701 258.075 825.553 258.075 826.979C258.075 829.83 258.075 832.682 259.501 835.534C259.501 838.385 260.927 841.237 262.353 842.663C263.779 844.089 266.63 844.089 268.056 844.089C269.482 844.089 270.908 844.089 272.334 842.663C273.759 841.237 275.185 839.811 276.611 838.385C278.037 836.96 278.037 835.534 279.463 834.108C280.889 832.682 280.889 831.256 282.314 829.83C283.74 828.405 283.74 826.979 285.166 826.979C286.592 825.553 286.592 825.553 286.592 824.127C288.018 822.701 289.444 821.275 289.444 821.275C290.869 819.85 290.869 819.85 292.295 818.424C292.295 816.998 293.721 816.998 293.721 815.572L295.147 814.146H296.573C296.573 814.146 297.999 815.572 297.999 816.998C299.424 818.424 299.424 819.85 300.85 821.275C302.276 822.701 302.276 822.701 302.276 824.127C303.702 825.553 305.128 825.553 306.553 826.979C307.979 826.979 310.831 826.979 312.257 826.979C313.683 826.979 315.108 826.979 316.534 825.553C317.96 825.553 319.386 824.127 319.386 824.127C322.238 824.127 323.663 822.701 326.515 819.85C329.367 818.424 332.218 814.146 335.07 811.295C336.496 809.869 336.496 808.443 336.496 808.443V807.017C337.922 804.166 339.348 802.74 339.348 801.314C340.773 799.888 340.773 798.462 342.199 797.036L343.625 798.462C343.625 799.888 343.625 799.888 343.625 801.314C343.625 802.74 343.625 804.166 343.625 805.591C343.625 809.869 342.199 812.72 342.199 815.572C342.199 818.424 342.199 821.275 342.199 824.127C342.199 826.979 343.625 828.405 345.051 829.83C346.477 831.256 347.903 831.256 350.754 831.256C352.18 831.256 353.606 829.83 355.032 828.405C356.458 826.979 356.458 825.553 357.883 824.127C357.883 822.701 359.309 822.701 359.309 821.275L360.735 819.85C362.161 818.424 362.161 816.998 363.587 815.572C365.013 814.146 365.013 812.721 366.438 811.295C367.864 808.443 369.29 807.017 370.716 804.166C370.716 804.166 373.568 805.591 377.845 808.443C382.122 811.295 386.4 812.721 387.826 812.721C389.252 812.721 390.677 811.295 393.529 811.295C394.955 809.869 396.381 808.443 397.807 807.017C399.232 805.591 400.658 804.165 402.084 802.74C403.51 801.314 404.936 799.888 406.362 798.462L407.787 797.036V795.61C409.213 794.185 409.213 794.185 410.639 792.759C410.639 791.333 412.065 791.333 412.065 791.333L413.491 789.907C414.917 788.481 414.917 787.056 416.342 785.63C417.768 784.204 419.194 782.778 419.194 781.352C409.213 785.63 409.213 785.63 410.639 785.63H412.065C412.065 785.63 412.065 785.63 412.065 787.056V788.481C412.065 788.481 412.065 789.907 412.065 791.333C412.065 792.759 412.065 792.759 412.065 792.759V794.185C410.639 799.888 410.639 804.165 410.639 808.443C410.639 812.72 409.213 815.572 409.213 818.424C409.213 819.85 410.639 821.275 410.639 822.701C410.639 824.127 412.065 825.553 414.917 824.127C416.342 824.127 417.768 824.127 417.768 822.701C419.194 822.701 419.194 821.275 420.62 821.275C420.62 819.85 422.046 819.85 422.046 818.424C422.046 816.998 423.472 816.998 423.472 815.572C426.323 812.72 427.749 808.443 430.601 807.017C432.027 804.166 433.452 802.74 434.878 801.314C434.878 799.888 436.304 799.888 436.304 798.462C437.73 797.036 439.156 795.611 442.007 792.759C443.433 791.333 444.859 789.907 444.859 789.907C446.285 788.481 446.285 788.481 447.711 788.481H449.137C450.562 789.907 451.988 791.333 453.414 792.759C454.84 794.185 456.266 794.185 456.266 795.61C457.691 797.036 459.117 798.462 459.117 799.888C460.543 801.314 460.543 801.314 461.969 802.74C463.395 804.165 464.821 804.166 466.246 805.591C467.672 805.591 469.098 805.591 470.524 805.591C471.95 805.591 473.376 805.591 473.376 804.166C474.801 804.166 476.227 802.74 476.227 801.314C477.653 799.888 477.653 799.888 479.079 798.462C480.505 797.036 480.505 797.036 481.931 795.61C483.356 792.759 486.208 789.907 487.634 788.481C489.06 787.056 490.486 785.63 490.486 785.63C490.486 785.63 491.911 785.63 491.911 787.056C491.911 787.056 493.337 788.481 494.763 789.907C494.763 791.333 496.189 791.333 496.189 791.333L497.615 792.759C500.466 798.462 503.318 801.314 504.744 802.74C506.17 804.165 510.447 804.165 516.151 802.74C517.576 802.74 517.576 801.314 520.428 801.314C521.854 799.888 523.28 798.462 526.131 797.036C527.557 795.611 530.409 792.759 531.835 791.333C533.26 789.907 534.686 788.481 534.686 787.056C536.112 785.63 536.112 784.204 536.112 784.204V782.778C537.538 781.352 538.964 778.501 538.964 777.075C540.39 775.649 540.39 774.223 541.815 772.797V774.223C541.815 775.649 541.815 775.649 541.815 777.075C541.815 778.501 541.815 779.926 541.815 781.352C541.815 785.63 540.39 788.481 540.39 791.333C540.39 794.185 540.39 797.036 540.39 799.888C540.39 802.74 541.815 804.166 543.241 805.591C544.667 807.017 546.093 807.017 548.945 807.017C550.37 807.017 551.796 805.591 553.222 804.166C554.648 802.74 554.648 801.314 556.074 799.888C556.074 798.462 557.5 798.462 557.5 797.036L558.925 795.61C560.351 794.185 560.351 792.759 561.777 791.333C563.203 789.907 563.203 788.481 564.629 787.056C566.055 784.204 567.48 782.778 568.906 779.926C568.906 779.926 571.758 781.352 576.035 784.204C580.313 787.056 584.59 788.481 586.016 788.481C587.442 788.481 588.868 787.056 590.294 787.056C591.719 785.63 593.145 784.204 594.571 782.778C595.997 781.352 597.423 779.926 598.849 778.501C600.275 777.075 601.7 775.649 603.126 774.223C601.7 777.075 611.681 762.816 608.829 761.391ZM54.1815 831.256C54.1815 832.682 52.7557 832.682 51.3299 834.108C49.9041 835.534 49.9041 835.534 48.4782 836.96C47.0524 836.96 47.0524 838.385 47.0524 838.385C45.6266 839.811 44.2007 839.811 42.7749 841.237C41.3491 842.663 39.9233 842.663 38.4974 844.089C35.6458 845.515 34.2199 846.94 32.7941 848.366C31.3683 849.792 29.9424 849.792 29.9424 849.792H28.5166V848.366C28.5166 845.515 28.5166 842.663 28.5166 838.385C28.5166 834.108 28.5166 828.405 29.9424 822.701L28.5166 818.424C28.5166 816.998 29.9424 811.295 31.3683 802.74C32.7941 794.185 32.7941 789.907 32.7941 788.481C32.7941 785.63 28.5166 779.926 19.9616 774.223V772.797C19.9616 772.797 19.9616 772.797 21.3875 772.797C22.8133 772.797 25.665 774.223 27.0908 774.223C28.5166 774.223 29.9424 775.649 31.3683 775.649C32.7941 775.649 32.7941 777.075 32.7941 777.075L34.2199 778.501C38.4974 781.352 42.7749 784.204 45.6266 787.056C48.4782 789.907 49.9041 791.333 51.3299 792.759C51.3299 794.185 52.7557 794.185 52.7557 795.61L54.1815 797.036L55.6074 798.462C55.6074 798.462 55.6074 798.462 55.6074 799.888V801.314C57.0332 804.165 58.4591 805.591 58.4591 808.443C59.8849 811.295 59.8849 812.72 59.8849 815.572C59.8849 819.85 59.8849 822.701 59.8849 825.553C58.459 828.405 57.0332 831.256 55.6074 832.682C55.6074 829.83 54.1815 829.83 54.1815 831.256ZM108.363 832.682C108.363 834.108 108.363 835.534 108.363 835.534C108.363 836.96 108.363 836.96 106.937 836.96C106.937 838.385 105.511 839.811 104.086 841.237C102.66 844.089 101.234 846.94 98.3823 848.366C95.5306 849.792 94.1048 851.218 91.2532 851.218C89.8273 851.218 88.4015 851.218 86.9757 849.792C85.5498 848.366 85.5498 848.366 85.5498 845.515C85.5498 844.089 85.5498 844.089 85.5498 842.663C85.5498 841.237 85.5498 839.811 86.9757 838.385C86.9757 835.534 88.4015 834.108 88.4015 832.682C88.4015 831.256 89.8273 831.256 89.8273 831.256C91.2531 831.256 91.2531 831.256 92.679 829.83L94.1048 828.405C95.5307 826.979 95.5306 825.553 96.9564 824.127C96.9564 822.701 98.3823 822.701 98.3823 821.275L99.8081 819.85C101.234 819.85 102.66 819.85 104.086 819.85C105.511 819.85 105.511 819.85 105.511 819.85L106.937 821.275C108.363 822.701 108.363 824.127 109.789 825.553L108.363 832.682ZM141.157 802.74C141.157 801.314 141.157 799.888 141.157 798.462C141.157 795.611 142.583 794.185 142.583 789.907C142.583 787.056 144.009 785.63 144.009 782.778C144.009 781.352 145.435 779.926 145.435 778.501C145.435 777.075 145.435 777.075 145.435 775.649C145.435 772.797 145.435 769.946 146.861 767.094C148.286 764.242 149.712 759.965 152.564 757.113C152.564 758.539 152.564 759.965 152.564 759.965C152.564 761.391 152.564 762.816 152.564 764.242C152.564 765.668 152.564 769.946 151.138 775.649C149.712 781.352 148.286 785.63 148.286 787.056C146.861 788.481 146.861 791.333 145.435 792.759C144.009 794.185 144.009 795.611 144.009 797.036C144.009 799.888 142.583 801.314 142.583 801.314C144.009 802.74 142.583 804.165 141.157 802.74ZM293.721 794.185C293.721 795.611 293.721 795.611 293.721 794.185C292.295 795.611 290.869 795.61 290.869 795.61C290.869 795.61 290.869 795.611 290.869 794.185C290.869 792.759 290.869 789.907 293.721 785.63C295.147 781.352 296.573 779.926 297.999 779.926H299.424C299.424 779.926 299.424 779.926 299.424 781.352C299.424 782.778 299.424 782.778 299.424 784.204C299.424 785.63 299.424 785.63 297.999 787.056C297.999 788.481 296.573 788.481 296.573 789.907C296.573 791.333 295.147 791.333 295.147 792.759C295.147 792.759 295.147 794.185 293.721 794.185Z" fill="white"/>
<path fill-rule="evenodd" clip-rule="evenodd" d="M561.777 78.4206C564.629 71.2915 566.055 64.1623 566.055 57.0332C566.055 25.6649 540.39 0 509.022 0C477.653 0 451.989 25.6649 451.989 57.0332C451.989 58.459 451.989 58.459 451.989 59.8848H109.789C49.9045 59.8848 1.42627 108.363 1.42627 168.248V557.5C1.42627 617.384 49.9045 665.863 109.789 665.863H500.467C560.352 665.863 608.83 617.384 608.83 557.5V168.248C608.83 131.176 590.294 98.3823 561.777 78.4206ZM541.816 242.391V363.587V484.782V605.978H476.228V541.815L471.95 553.222L466.247 563.203L460.543 574.609L453.414 584.59L450.563 588.868L446.285 593.145L437.73 598.849L433.453 601.7L429.175 603.126L424.898 604.552H420.62H353.606L337.922 497.615L372.142 499.04H382.123H392.104L402.085 497.615L406.362 496.189L410.639 493.337L412.065 490.486L413.491 487.634L414.917 484.782L416.343 481.93V479.079V474.801V466.246L414.917 457.691L412.065 449.136L409.214 440.581V430.601L370.716 353.606L400.659 295.147L404.936 285.166L407.788 276.611L410.639 269.482L412.065 262.353V256.649V250.946L410.639 246.669L409.214 242.391L407.788 239.539L404.936 236.688L402.085 235.262L397.807 233.836L393.53 232.41L389.252 230.984H383.549H377.845H352.18L353.606 248.094V266.63V285.166L350.755 300.85L349.329 317.96L346.477 335.07L343.625 350.754L342.2 357.883L340.774 365.012L337.922 372.142L335.07 379.271L327.941 394.955L323.664 403.51L319.386 412.065L309.406 429.175L303.702 437.73L297.999 446.285L286.592 463.395L272.334 486.208L266.631 494.763L259.501 503.318V604.552H205.32V547.519L193.913 604.552H69.8661V483.356V362.161V240.965V119.77H135.454V307.979V496.189H206.746V372.142V248.094H260.927V374.993L266.631 366.438L273.76 355.032L279.463 342.199L285.166 329.367L290.87 315.108L295.147 300.85L296.573 293.721L297.999 286.592L299.425 279.463V273.759V259.501L297.999 249.52L296.573 245.243L292.296 243.817L290.87 240.965L288.018 239.539L282.315 238.114H276.611H260.927H191.062L206.746 122.621H276.611H283.741L290.87 124.047L296.573 125.473L302.276 128.325L307.98 131.176L313.683 134.028L317.961 138.305L322.238 142.583L326.516 146.86L330.793 152.564L336.496 163.97L339.348 171.1L342.2 178.229L345.051 185.358L346.477 192.487L356.458 121.196H412.065H419.194L424.898 122.621L430.601 124.047L436.304 126.899L442.008 131.176L446.285 135.454L450.563 141.157L454.84 146.86L459.118 152.564L461.969 159.693L464.821 166.822L467.673 175.377L469.099 183.932L470.524 192.487L471.95 201.042V211.023V232.41L470.524 250.946L466.247 269.482L464.821 278.037L461.969 286.592L459.118 300.85L454.84 316.534L443.434 349.328L450.563 366.438L459.118 387.826L467.673 413.491L471.95 427.749L476.228 442.007V282.314V121.196H541.816V242.391ZM509.022 105.511C481.931 105.511 460.543 84.124 460.543 57.0332C460.543 29.9424 481.931 8.55496 509.022 8.55496C536.112 8.55496 557.5 29.9424 557.5 57.0332C557.5 82.6981 536.112 105.511 509.022 105.511Z" fill="white"/>
<path d="M990.952 262.35C1005.21 262.35 1015.19 266.628 1023.75 273.757C1032.3 280.886 1036.58 292.293 1036.58 303.699C1036.58 316.532 1032.3 326.513 1023.75 335.068C1015.19 342.197 1003.78 346.474 989.526 346.474H961.009V383.546H931.067V260.924H990.952V262.35ZM986.674 322.235C992.377 322.235 996.655 320.809 1000.93 317.958C1003.78 315.106 1006.64 310.828 1006.64 305.125C1006.64 300.848 1005.21 296.57 1000.93 292.293C998.081 289.441 992.377 288.015 986.674 288.015H959.583V322.235H986.674Z" fill="white"/>
<path d="M1152.07 278.04C1164.9 290.872 1170.61 305.131 1170.61 323.667C1170.61 340.776 1164.9 356.461 1152.07 369.293C1139.24 382.126 1123.55 387.829 1106.44 387.829C1087.91 387.829 1072.22 382.126 1060.82 369.293C1047.98 356.461 1042.28 342.202 1042.28 323.667C1042.28 305.131 1047.98 290.872 1060.82 278.04C1073.65 265.208 1089.33 259.504 1106.44 259.504C1123.55 259.504 1139.24 265.208 1152.07 278.04ZM1130.68 349.331C1137.81 342.202 1140.66 333.647 1140.66 323.667C1140.66 313.686 1137.81 305.131 1130.68 298.002C1123.55 290.872 1115 288.021 1105.02 288.021C1095.04 288.021 1086.48 290.872 1079.35 298.002C1072.22 305.131 1069.37 313.686 1069.37 323.667C1069.37 333.647 1072.22 342.202 1079.35 349.331C1086.48 356.461 1095.04 359.312 1105.02 359.312C1115 359.312 1123.55 356.461 1130.68 349.331Z" fill="white"/>
<path d="M1270.41 383.547H1180.59V262.352H1210.53V357.882H1270.41V383.547Z" fill="white"/>
<path d="M1310.34 262.352H1280.39V384.973H1310.34V262.352Z" fill="white"/>
<path d="M1387.33 288.017V383.547H1357.39V288.017H1317.47V262.352H1425.83V288.017H1387.33Z" fill="white"/>
<path d="M1528.49 383.547H1432.96V262.352H1528.49V288.017H1464.33V310.83H1522.79V335.069H1464.33V357.882H1528.49V383.547Z" fill="white"/>
<path d="M1616.89 383.547L1576.97 337.921H1569.84V383.547H1539.9V262.352H1569.84V310.83H1574.12L1616.89 262.352H1652.54L1601.21 323.662L1656.81 383.547H1616.89Z" fill="white"/>
<path d="M1776.58 383.547H1750.92L1689.61 313.682V383.547H1659.67V262.352H1683.91L1746.64 335.069V262.352H1776.58V383.547Z" fill="white"/>
<path d="M1819.36 262.352H1789.42V384.973H1819.36V262.352Z" fill="white"/>
<path d="M1910.61 383.547L1870.69 337.921H1863.56V383.547H1833.62V262.352H1863.56V310.83H1867.84L1910.61 262.352H1946.26L1894.93 323.662L1950.54 383.547H1910.61Z" fill="white"/>
<path d="M2077.43 383.547H1987.61V262.352H2017.55V357.882H2077.43V383.547Z" fill="white"/>
<path d="M2147.3 262.35C2161.56 262.35 2171.54 266.628 2180.09 273.757C2188.65 280.886 2192.93 292.293 2192.93 303.699C2192.93 316.532 2188.65 326.513 2180.09 335.068C2171.54 342.197 2160.13 346.474 2145.87 346.474H2117.36V383.546H2087.42V260.925H2147.3V262.35ZM2144.45 322.235C2150.15 322.235 2154.43 320.809 2158.71 317.958C2161.56 315.106 2164.41 310.829 2164.41 305.125C2164.41 300.848 2162.98 296.57 2158.71 292.293C2155.85 289.441 2150.15 288.015 2144.45 288.015H2117.36V322.235H2144.45Z" fill="white"/>
<path d="M2289.88 347.903C2289.88 359.309 2285.61 369.29 2277.05 376.419C2268.5 383.549 2257.09 387.826 2244.26 387.826C2231.42 387.826 2220.02 384.974 2211.46 377.845C2202.91 370.716 2197.2 362.161 2195.78 349.329L2224.29 343.625C2225.72 349.329 2227.15 355.032 2230 357.884C2232.85 360.735 2237.13 362.161 2242.83 362.161C2248.53 362.161 2252.81 360.735 2255.66 357.884C2258.51 355.032 2259.94 352.18 2259.94 347.903C2259.94 343.625 2258.51 340.774 2255.66 337.922C2252.81 335.07 2248.53 333.645 2242.83 333.645H2228.57V310.831H2241.4C2247.11 310.831 2249.96 309.405 2252.81 306.554C2255.66 303.702 2257.09 300.85 2257.09 296.573C2257.09 292.295 2255.66 289.444 2252.81 286.592C2249.96 283.74 2245.68 282.315 2241.4 282.315C2235.7 282.315 2231.42 283.74 2228.57 286.592C2225.72 289.444 2222.87 295.147 2222.87 300.85L2195.78 295.147C2197.2 283.74 2201.48 273.76 2210.04 266.63C2218.59 259.501 2228.57 256.65 2241.4 256.65C2254.24 256.65 2265.64 260.927 2272.77 268.056C2281.33 275.185 2285.61 285.166 2285.61 295.147C2285.61 306.554 2281.33 315.109 2272.77 319.386C2284.18 327.941 2289.88 336.496 2289.88 347.903Z" fill="white"/>
<path d="M2329.81 262.352H2299.86V384.973H2329.81V262.352Z" fill="white"/>
<path d="M1005.21 537.535L966.712 491.908H959.583V537.535H931.067V417.765H959.583V464.818H963.861L1005.21 417.765H1040.86L989.526 477.65L1043.71 537.535H1005.21Z" fill="white"/>
<path d="M1134.96 537.535L1126.41 516.147H1076.5L1067.95 537.535H1036.58L1086.48 417.765H1116.42L1166.33 537.535H1134.96ZM1100.74 450.559L1085.06 490.483H1115L1100.74 450.559Z" fill="white"/>
<path d="M1307.49 537.535H1278.97V477.65L1247.6 537.535H1229.06L1197.7 477.65V537.535H1169.18V417.765H1197.7L1239.05 491.908L1278.97 417.765H1307.49V537.535Z" fill="white"/>
<path d="M1380.2 417.765C1393.04 417.765 1404.44 422.043 1411.57 429.172C1420.13 436.301 1422.98 446.282 1422.98 459.114C1422.98 471.947 1418.7 481.927 1410.15 489.057C1401.59 496.186 1391.61 500.463 1377.35 500.463H1348.83V537.535H1318.89V417.765H1380.2ZM1375.93 476.224C1381.63 476.224 1385.91 474.798 1388.76 471.947C1391.61 469.095 1393.04 464.818 1393.04 459.114C1393.04 454.837 1391.61 450.559 1387.33 447.708C1384.48 444.856 1380.2 443.43 1374.5 443.43H1350.26V476.224H1375.93Z" fill="white"/>
<path d="M1538.47 483.353C1538.47 500.463 1534.19 514.722 1524.21 524.702C1514.23 534.683 1501.4 540.387 1485.71 540.387C1470.03 540.387 1455.77 534.683 1445.79 524.702C1435.81 514.722 1431.53 500.463 1431.53 483.353V417.765H1461.48V483.353C1461.48 491.908 1464.33 499.038 1468.6 504.741C1472.88 510.444 1478.59 513.296 1487.14 513.296C1494.27 513.296 1499.97 510.444 1504.25 504.741C1508.53 499.038 1511.38 491.908 1511.38 483.353V417.765H1541.32V483.353H1538.47Z" fill="white"/>
<path d="M1631.15 424.898C1639.7 430.601 1645.41 439.156 1648.26 450.563L1619.74 456.266C1618.32 450.563 1615.47 446.285 1612.61 443.433C1608.34 440.582 1604.06 439.156 1599.78 439.156C1595.5 439.156 1591.23 440.582 1588.37 442.008C1585.52 444.859 1584.1 447.711 1584.1 450.563C1584.1 456.266 1586.95 459.117 1594.08 460.543L1618.32 466.247C1639.7 470.524 1651.11 483.357 1651.11 500.467C1651.11 513.299 1646.83 521.854 1636.85 528.983C1626.87 536.112 1615.47 538.964 1601.21 538.964C1586.95 538.964 1575.54 536.112 1565.56 528.983C1555.58 523.28 1549.88 513.299 1548.45 501.892L1578.39 496.189C1581.25 507.596 1589.8 513.299 1602.63 513.299C1608.34 513.299 1612.61 511.873 1615.47 510.447C1618.32 507.596 1619.74 504.744 1619.74 501.892C1619.74 499.041 1618.32 496.189 1616.89 494.763C1615.47 493.337 1612.61 491.912 1608.34 490.486L1582.67 484.782C1561.28 480.505 1549.88 467.672 1549.88 450.563C1549.88 439.156 1554.15 429.175 1562.71 423.472C1571.26 416.343 1582.67 413.491 1596.93 413.491C1612.61 414.917 1622.59 417.768 1631.15 424.898Z" fill="white"/>
<path d="M1755.2 443.43V537.535H1726.68V443.43H1688.18V417.765H1793.69V443.43H1755.2Z" fill="white"/>
<path d="M1876.39 537.535L1867.84 516.147H1817.93L1809.38 537.535H1778.01L1827.91 417.765H1857.86L1907.76 537.535H1876.39ZM1843.6 450.559L1827.91 490.483H1857.86L1843.6 450.559Z" fill="white"/>
<path d="M1987.61 424.898C1996.16 430.601 2001.86 439.156 2004.72 450.563L1976.2 456.266C1974.77 450.563 1971.92 446.285 1969.07 443.433C1964.79 440.582 1960.52 439.156 1956.24 439.156C1951.96 439.156 1947.68 440.582 1944.83 442.008C1941.98 444.859 1940.55 447.711 1940.55 450.563C1940.55 456.266 1943.41 459.117 1950.53 460.543L1974.77 466.247C1996.16 470.524 2007.57 483.357 2007.57 500.467C2007.57 513.299 2003.29 521.854 1993.31 528.983C1983.33 536.112 1971.92 538.964 1957.66 538.964C1943.41 538.964 1932 536.112 1922.02 528.983C1912.04 523.28 1906.33 513.299 1904.91 501.892L1934.85 496.189C1937.7 507.596 1946.26 513.299 1959.09 513.299C1964.79 513.299 1969.07 511.873 1971.92 510.447C1974.77 507.596 1976.2 504.744 1976.2 501.892C1976.2 499.041 1974.77 496.189 1973.35 494.763C1971.92 493.337 1969.07 491.912 1964.79 490.486L1939.13 484.782C1917.74 480.505 1906.33 467.672 1906.33 450.563C1906.33 439.156 1910.61 429.175 1919.17 423.472C1927.72 416.343 1939.13 413.491 1953.39 413.491C1969.07 414.917 1979.05 417.768 1987.61 424.898Z" fill="white"/>
<path d="M2046.07 417.765H2016.12V537.535H2046.07V417.765Z" fill="white"/>
<path d="M2134.47 537.535L2094.54 491.908H2088.84V537.535H2058.9V417.765H2088.84V464.818H2093.12L2134.47 417.765H2168.69L2118.78 477.65L2172.96 537.535H2134.47Z" fill="white"/>
<path d="M2312.7 537.535H2284.18V477.65L2254.24 537.535H2235.7L2204.33 477.65V537.535H2175.82V417.765H2204.33L2244.26 491.908L2284.18 417.765H2312.7V537.535Z" fill="white"/>
<path d="M2415.36 537.535L2406.8 516.147H2356.9L2348.34 537.535H2316.97L2366.88 417.765H2396.82L2446.72 537.535H2415.36ZM2381.14 450.559L2365.45 490.483H2395.39L2381.14 450.559Z" fill="white"/>
<path d="M2537.98 537.535H2449.58V417.765H2479.52V511.87H2537.98V537.535Z" fill="white"/>
<path d="M2634.93 537.535L2626.38 516.147H2576.48L2567.92 537.535H2536.55L2586.46 417.765H2616.4L2666.3 537.535H2634.93ZM2602.14 450.559L2586.46 490.483H2616.4L2602.14 450.559Z" fill="white"/>
<path d="M2717.63 537.535H2687.69V500.463L2642.06 417.765H2673.43L2703.37 470.521L2731.89 417.765H2764.68L2717.63 500.463V537.535Z" fill="white"/>
<path d="M2837.4 537.535L2828.85 516.147H2778.94L2770.39 537.535H2739.02L2788.92 417.765H2818.87L2868.77 537.535H2837.4ZM2804.61 450.559L2788.92 490.483H2818.87L2804.61 450.559Z" fill="white"/>
<path d="M772.8 19.9602H767.097V815.573H772.8V19.9602Z" fill="white"/>
</svg>
